<svg width="47" height="54" viewBox="0 0 47 54" fill="none" xmlns="http://www.w3.org/2000/svg">
<path d="M37.7468 11.2755L35.1821 14.5695C38.8175 17.3873 41.3228 21.4146 42.2438 25.9211C43.1648 30.4276 42.4404 35.1149 40.2021 39.1332C37.9638 43.1515 34.3597 46.2347 30.0433 47.8238C25.7268 49.4129 20.9839 49.4027 16.6744 47.795C12.3648 46.1873 8.77407 43.0885 6.55312 39.0606C4.33217 35.0327 3.62807 30.3423 4.56849 25.8398C5.50892 21.3373 8.0316 17.3209 11.6791 14.5187C15.3267 11.7166 19.8576 10.3142 24.4503 10.5659L20.8417 14.3515L23.5185 16.9059L29.2148 10.9215L31.7667 8.24138L29.0942 5.69715L23.1141 0L20.5605 2.68016L24.4554 6.39049C18.4812 6.11844 12.6297 8.14498 8.10332 12.0537C3.57697 15.9623 0.719648 21.4563 0.118525 27.4064C-0.482597 33.3566 1.21814 39.311 4.87125 44.046C8.52435 48.781 13.8523 51.937 19.7603 52.8653C20.9793 53.058 22.2116 53.1549 23.4458 53.1552C28.3182 53.143 33.0653 51.6103 37.0248 48.7709C40.9844 45.9315 43.9589 41.927 45.5335 37.316C47.108 32.7051 47.204 27.7176 45.8082 23.0494C44.4123 18.3813 41.5941 14.2652 37.7468 11.2755V11.2755Z" fill="#D893D1"/>
<path d="M25.6884 41.6876V39.2853C28.537 38.9673 31.3078 37.1686 31.3078 33.7523C31.3078 29.111 26.9922 28.5792 23.8401 28.1911C21.8251 27.95 20.282 27.6705 20.282 26.4496C20.282 24.7518 22.6757 24.5688 23.7016 24.5688C25.2285 24.5688 26.858 25.2869 27.4119 26.2026L27.5727 26.4693L30.7359 25.004L30.5794 24.6851C30.1099 23.7569 29.4162 22.9605 28.5611 22.3683C27.7059 21.7761 26.7165 21.4067 25.6825 21.2936V19.1777H21.9807V21.2834C18.5294 21.7963 16.4793 23.7079 16.4793 26.4488C16.4793 30.9174 20.5367 31.3705 23.4973 31.7031C26.1356 32.0143 27.3632 32.6657 27.3632 33.7549C27.3632 35.8298 24.4898 35.9913 23.6093 35.9913C21.649 35.9913 19.7622 35.0133 19.2116 33.7138L19.0757 33.3933L15.6406 34.8492L15.7774 35.1698C16.7956 37.5541 18.9936 39.0477 21.9849 39.4007V41.6876H25.6884Z" fill="#D893D1"/>
</svg>
