<svg width="53" height="69" viewBox="0 0 53 69" fill="none" xmlns="http://www.w3.org/2000/svg">
<path d="M0 54.5814V69.0007H52.5569V54.5814C52.5549 52.9738 51.9153 51.4326 50.7786 50.2959C49.6419 49.1592 48.1007 48.5196 46.4931 48.5176H6.06381C4.45622 48.5196 2.91507 49.1592 1.77833 50.2959C0.641595 51.4326 0.00206698 52.9738 0 54.5814H0ZM4.04254 54.5814C4.04332 54.0455 4.25652 53.5319 4.63541 53.153C5.01431 52.7741 5.52797 52.5609 6.06381 52.5601H8.08508V64.9611H4.04254V54.5814ZM12.1286 52.5601H17.3556L26.2785 61.483L35.2013 52.5601H40.4254V64.9611H12.1286V52.5601ZM48.5144 54.5814V64.9582H44.4719V52.5572H46.4931C47.0295 52.558 47.5436 52.7716 47.9226 53.1511C48.3015 53.5306 48.5144 54.045 48.5144 54.5814V54.5814ZM29.4842 52.5601L26.2785 55.7658L23.0728 52.5601H29.4842Z" fill="#D893D1"/>
<path d="M41.4019 40.4278H44.4748V36.3853H46.4961C48.1036 36.3832 49.6448 35.7437 50.7815 34.607C51.9183 33.4702 52.5578 31.9291 52.5599 30.3215V26.279C52.5596 19.3091 49.7906 12.6248 44.862 7.69652C39.9333 2.76826 33.2488 -0.000258955 26.279 1.8167e-08C19.3091 0.000258991 12.6248 2.76928 7.69652 7.6979C2.76826 12.6265 -0.000258955 19.311 1.8167e-08 26.2809L1.8167e-08 30.3234C0.00206699 31.931 0.641595 33.4722 1.77833 34.6089C2.91507 35.7457 4.45622 36.3852 6.06381 36.3873H9.12599C10.2502 39.5711 12.2385 42.3791 14.8683 44.4968C17.4981 46.6145 20.6655 47.9583 24.0158 48.3777C27.3661 48.7972 30.767 48.2756 33.8377 46.8715C36.9083 45.4675 39.5275 43.2363 41.4019 40.4278V40.4278ZM46.4961 32.3418H44.3576C44.4329 31.6707 44.4707 30.9959 44.4709 30.3205V26.278C44.4707 25.6026 44.4329 24.9278 44.3576 24.2567H46.4921C47.028 24.2575 47.5416 24.4707 47.9205 24.8496C48.2994 25.2285 48.5126 25.7421 48.5134 26.278V30.3205C48.5137 30.857 48.3009 31.3717 47.9219 31.7514C47.5429 32.1312 47.0287 32.3449 46.4921 32.3457L46.4961 32.3418ZM26.2785 4.04498C31.1388 4.05123 35.8637 5.64699 39.7325 8.58887C43.6014 11.5308 46.4019 15.6573 47.7069 20.3392C47.3074 20.2578 46.9008 20.2169 46.4931 20.2171H43.43C42.1759 16.6701 39.8531 13.5992 36.7814 11.4271C33.7097 9.25509 30.0401 8.08876 26.278 8.08876C22.5159 8.08876 18.8463 9.25509 15.7746 11.4271C12.7028 13.5992 10.38 16.6701 9.12599 20.2171H6.06381C5.65616 20.2169 5.24952 20.2578 4.85007 20.3392C6.15506 15.6573 8.95554 11.5308 12.8244 8.58887C16.6933 5.64699 21.4181 4.05123 26.2785 4.04498V4.04498ZM37.8866 18.1997C36.5796 20.0668 34.8427 21.5921 32.8223 22.6468C30.802 23.7015 28.5575 24.2547 26.2785 24.2596H12.2731C12.6778 21.4492 13.919 18.8255 15.8352 16.7301C17.7514 14.6347 20.2538 13.1644 23.017 12.5107C25.7802 11.8569 28.6762 12.0499 31.3282 13.0646C33.9802 14.0792 36.2654 15.8685 37.8866 18.1997V18.1997ZM6.06381 32.3457C5.52797 32.3449 5.01431 32.1317 4.63541 31.7528C4.25652 31.3739 4.04332 30.8603 4.04254 30.3244V26.2819C4.04332 25.746 4.25652 25.2324 4.63541 24.8535C5.01431 24.4746 5.52797 24.2614 6.06381 24.2606H8.20226C8.12699 24.9317 8.08918 25.6065 8.08899 26.2819V30.3244C8.08918 30.9998 8.12699 31.6746 8.20226 32.3457H6.06381ZM12.1276 30.3244V28.3032H26.2785C28.838 28.2984 31.368 27.7556 33.7042 26.7099C36.0405 25.6643 38.1308 24.1392 39.8395 22.2335C40.2323 23.5467 40.4314 24.9102 40.4303 26.2809V30.3234C40.4325 32.4214 39.9654 34.4932 39.0632 36.3873H32.3423L30.5632 34.6121C29.4258 35.7492 27.8834 36.3881 26.275 36.3881C24.6667 36.3881 23.1243 35.7492 21.9869 34.6121L19.1288 37.4701C20.8491 39.1904 23.1321 40.2324 25.5588 40.405C27.9855 40.5775 30.393 39.869 32.3393 38.4095V40.4278H36.1671C34.1777 42.3766 31.6573 43.6947 28.9219 44.2167C26.1865 44.7388 23.3578 44.4417 20.7906 43.3626C18.2234 42.2834 16.0319 40.4704 14.4909 38.1508C12.95 35.8312 12.1282 33.1082 12.1286 30.3234L12.1276 30.3244Z" fill="#D893D1"/>
</svg>
