<svg width="79" height="52" viewBox="0 0 79 52" fill="none" xmlns="http://www.w3.org/2000/svg">
<path d="M79 26.7824C79 26.7675 79 26.7526 79 26.7377C78.9933 26.2578 78.7988 25.8 78.4588 25.4636C78.1189 25.1272 77.6609 24.9395 77.1843 24.9411H76.7072L69.3279 10.5878C69.1744 10.29 68.9422 10.0406 68.657 9.86702C68.3718 9.69347 68.0446 9.60249 67.7113 9.6041H55.1205L55.6005 5.7696C55.6792 5.03641 55.6023 4.29475 55.3751 3.59369C55.1479 2.89262 54.7755 2.24812 54.2824 1.70279C53.7894 1.15746 53.1871 0.723721 52.5152 0.430268C51.8434 0.136815 51.1173 -0.00966781 50.385 0.000494819H11.3064C10.829 0.00306493 10.3694 0.18364 10.0164 0.50737C9.66346 0.831099 9.44209 1.27503 9.39506 1.75346L9.00076 4.91198H31.2686C31.6097 4.9102 31.9477 4.97771 32.2623 5.11046C32.5769 5.2432 32.8617 5.43846 33.0996 5.68457C33.3376 5.93068 33.5238 6.22258 33.6472 6.54282C33.7706 6.86305 33.8286 7.20506 33.8177 7.54838C33.796 8.25251 33.504 8.92073 33.003 9.41244C32.502 9.90414 31.8311 10.181 31.1316 10.1848H23.705V10.1957H1.90049C1.40629 10.1983 0.932304 10.3936 0.578099 10.7406C0.223894 11.0877 0.0170352 11.5595 0.000976121 12.0569C-0.00698598 12.2998 0.033828 12.5419 0.120974 12.7686C0.208119 12.9953 0.339804 13.202 0.508141 13.3762C0.676479 13.5504 0.878006 13.6887 1.10065 13.7826C1.3233 13.8766 1.56249 13.9243 1.80389 13.923H30.6762C31.3325 14.0234 31.9295 14.3627 32.3542 14.8765C32.7789 15.3903 33.0019 16.0431 32.9808 16.7113C32.9573 17.462 32.6468 18.1747 32.1142 18.7006C31.5817 19.2265 30.8681 19.5252 30.1222 19.5343H10.2211C9.72085 19.5369 9.24115 19.735 8.88311 20.0868C8.52508 20.4386 8.31669 20.9167 8.30188 21.4202C8.29364 21.6657 8.33472 21.9103 8.42264 22.1394C8.51055 22.3685 8.6435 22.5774 8.81351 22.7535C8.98353 22.9296 9.1871 23.0694 9.41203 23.1643C9.63697 23.2593 9.87863 23.3076 10.1225 23.3062H29.7939C30.4566 23.3982 31.0622 23.7334 31.4944 24.2474C31.9267 24.7615 32.1552 25.4182 32.136 26.0915C32.1126 26.8459 31.7995 27.5617 31.2627 28.0883C30.7259 28.615 30.0072 28.9115 29.2577 28.9155H6.69315H4.79659C4.29634 28.9181 3.81663 29.1162 3.45859 29.4681C3.10056 29.8199 2.89217 30.298 2.87736 30.8015C2.86913 31.047 2.9102 31.2916 2.99812 31.5207C3.08604 31.7498 3.21898 31.9587 3.389 32.1348C3.55901 32.3109 3.76258 32.4506 3.98752 32.5456C4.21245 32.6406 4.45411 32.6888 4.69802 32.6875H6.33434L5.6946 39.4314C5.61613 40.1645 5.69308 40.906 5.92037 41.607C6.14766 42.3079 6.52011 42.9523 7.0131 43.4975C7.50609 44.0427 8.10839 44.4764 8.78018 44.7698C9.45197 45.0632 10.178 45.2096 10.9101 45.1995H12.3227C12.6542 47.1103 13.6465 48.8413 15.124 50.086C16.6014 51.3307 18.4686 52.0087 20.3949 51.9999C22.3542 51.9862 24.2517 51.3074 25.7805 50.0734C27.3094 48.8393 28.3802 47.1222 28.82 45.1995H46.4361C47.8423 45.1868 49.1989 44.6747 50.2667 43.7532C51.2489 44.6954 52.5575 45.2143 53.914 45.1995H54.2038C54.5352 47.1103 55.5276 48.8413 57.005 50.086C58.4825 51.3307 60.3497 52.0087 62.276 51.9999C64.2353 51.9862 66.1327 51.3074 67.6616 50.0734C69.1904 48.8393 70.2613 47.1222 70.7011 45.1995H71.8613C73.3568 45.1705 74.7903 44.5929 75.8929 43.5751C76.9954 42.5573 77.6912 41.1693 77.8496 39.6716L78.9892 26.966C78.9892 26.9491 78.9892 26.9323 78.9892 26.9144C78.9892 26.8965 78.9941 26.8628 78.9951 26.836C78.9961 26.8092 79 26.7973 79 26.7824ZM20.4925 48.2309C19.8836 48.2336 19.2804 48.1128 18.7188 47.8756C18.1573 47.6385 17.6489 47.2898 17.2241 46.8506C16.7993 46.4113 16.4667 45.8903 16.2461 45.3188C16.0255 44.7472 15.9216 44.1368 15.9404 43.5239C15.9806 42.2672 16.5026 41.0749 17.3969 40.1973C18.2912 39.3197 19.4883 38.825 20.737 38.8169C21.3459 38.8142 21.9491 38.9351 22.5106 39.1722C23.0722 39.4094 23.5805 39.758 24.0054 40.1973C24.4302 40.6366 24.7628 41.1575 24.9834 41.7291C25.2039 42.3006 25.3079 42.911 25.2891 43.5239C25.2489 44.7807 24.7268 45.973 23.8325 46.8505C22.9382 47.7281 21.7412 48.2229 20.4925 48.2309V48.2309ZM62.3755 48.2309C61.7666 48.2336 61.1634 48.1128 60.6018 47.8756C60.0403 47.6385 59.532 47.2898 59.1071 46.8506C58.6823 46.4113 58.3497 45.8903 58.1291 45.3188C57.9086 44.7472 57.8046 44.1368 57.8234 43.5239C57.8636 42.2672 58.3857 41.0749 59.2799 40.1973C60.1742 39.3197 61.3713 38.825 62.62 38.8169C63.2289 38.8142 63.8321 38.9351 64.3937 39.1722C64.9552 39.4094 65.4636 39.758 65.8884 40.1973C66.3132 40.6366 66.6458 41.1575 66.8664 41.7291C67.087 42.3006 67.1909 42.911 67.1721 43.5239C67.1319 44.7807 66.6099 45.973 65.7156 46.8505C64.8213 47.7281 63.6242 48.2229 62.3755 48.2309V48.2309ZM74.1285 39.4274C74.0658 39.9677 73.8123 40.4674 73.4142 40.8351C73.016 41.2028 72.4999 41.4142 71.9599 41.4305H70.706C70.2921 39.6122 69.2761 37.99 67.8249 36.8305C66.3738 35.6711 64.574 35.0434 62.7215 35.0509C60.8359 35.0641 59.0054 35.6932 57.5052 36.8435C56.0049 37.9939 54.916 39.6036 54.4019 41.4305H54.0165C53.7932 41.4356 53.5715 41.3932 53.3656 41.3062C53.1597 41.2191 52.9744 41.0893 52.8218 40.9252C52.6722 40.7553 52.5599 40.5556 52.492 40.3391C52.424 40.1226 52.4021 39.8942 52.4275 39.6686L54.7853 13.3641H60.2L59.3424 22.9429C59.2638 23.6761 59.3406 24.4178 59.5679 25.1188C59.7951 25.8199 60.1675 26.4644 60.6605 27.0097C61.1535 27.5551 61.7559 27.9888 62.4277 28.2823C63.0996 28.5757 63.8257 28.7222 64.5579 28.712H75.0886L74.1285 39.4274Z" fill="#D893D1"/>
</svg>
